<?xml version="1.0" encoding="utf-8"?>
<svg xmlns="http://www.w3.org/2000/svg" width="55" height="52" viewBox="0 0 55 52" fill="none">
<mask id="mask0_440_834" style="mask-type:luminance" maskUnits="userSpaceOnUse" x="3" y="4" width="52" height="44">
<path fill-rule="evenodd" clip-rule="evenodd" d="M3.75647 4.61914H54.0085V47.4388H3.75647V4.61914Z" fill="white"/>
</mask>
<g mask="url(#mask0_440_834)">
<path fill-rule="evenodd" clip-rule="evenodd" d="M44.7307 33.1098C42.4344 33.4711 40.4425 34.6305 38.9094 36.6823C38.6908 36.9747 38.5236 37.3349 38.3938 37.6928C38.1557 38.341 38.3435 38.8676 38.8859 39.1603C39.0594 39.2537 39.2558 39.3026 39.4466 39.3474C40.8456 39.6738 42.236 39.4922 43.6062 39.1547C45.4491 38.7002 47.174 37.9082 48.5504 36.3634C48.93 35.9382 49.1883 35.5824 49.5166 34.8962C49.8435 34.2096 49.6901 33.7158 49.0199 33.4024C48.3522 33.0903 46.7312 32.7954 44.7307 33.1098ZM15.1161 8.46164C15.159 7.59374 15.2246 6.7268 15.2908 5.85962C15.3081 5.63898 15.3499 5.41351 15.4142 5.2049C15.5674 4.71639 15.8354 4.51285 16.2643 4.67279C16.6525 4.81636 17.0553 5.02087 17.3578 5.32342C17.9645 5.9302 18.5359 6.59384 19.071 7.28686C19.5567 7.91677 19.7281 8.6411 19.6327 9.53984C19.2446 13.2482 18.8448 16.9588 18.6186 20.6824C18.3978 24.3245 18.2905 27.9816 18.5103 31.6368C18.596 33.0662 18.6378 34.4989 18.7043 35.9295C18.7161 36.2013 18.7482 36.4713 18.7847 36.8977C18.9841 36.631 19.1128 36.4843 19.2168 36.3157C20.1388 34.8275 21.049 33.3295 21.9753 31.8456C22.6397 30.7828 23.5169 30.0595 24.6329 29.7234C26.2486 29.2359 27.6433 29.7887 28.8739 30.9558C29.6082 31.6522 30.2826 32.4353 30.957 33.2119C32.0633 34.4881 33.146 35.7913 34.2406 37.0802C34.4614 37.3392 34.694 37.5839 34.9739 37.8939C39.053 31.5226 44.6859 30.0539 51.1524 31.108C51.1985 30.659 51.2381 30.277 51.2854 29.8268C52.1547 29.4493 53.0209 29.4394 53.9484 29.868C53.9698 30.0845 54.0104 30.0987 54.0085 30.513C53.8335 34.2465 53.689 37.9799 53.8841 41.7199C53.914 42.3086 54.0104 44.4657 53.7018 44.5842C53.5237 44.6517 53.2643 44.0926 53.1356 43.8117C52.2608 41.8962 51.8226 39.8304 51.5458 37.7092C51.5275 37.5731 51.5137 37.4351 51.4848 37.1783C47.4463 40.9442 42.8095 42.192 37.6766 41.8102C38.3188 42.872 38.9298 43.8411 39.5 44.841C39.8336 45.424 40.1101 46.0505 40.3976 46.6686C40.4983 46.8861 40.659 47.3744 40.3257 47.3941C39.9912 47.4124 39.0841 46.6761 38.5718 46.1355C36.9315 44.4026 35.3276 42.6239 33.6896 40.8879C31.5842 38.6554 29.4709 36.4311 27.3375 34.2335C26.2559 33.1206 25.2311 33.162 24.1246 34.2891C22.8681 35.566 21.8936 37.1205 20.8944 38.651C20.38 39.4378 19.8547 40.2165 19.3025 40.9671C19.0527 41.3053 18.7463 41.6091 18.4225 41.8526C17.9228 42.2291 17.5477 42.1159 17.2687 41.5024C17.1016 41.1345 17.0062 40.7181 16.9184 40.3112C16.2719 37.3023 15.9942 34.2282 15.7399 31.1526C15.5396 28.7488 15.1966 23.2574 15.1548 22.8438C14.2092 22.7503 13.3439 23.0201 12.5549 23.538C10.2275 25.0621 9.25629 27.984 10.5878 30.8113C11.0144 31.7206 11.5761 32.5485 12.1005 33.3926C12.7244 34.3978 13.4363 35.3377 14.0034 36.3819C14.9777 38.1801 14.7505 40.4037 13.5479 42.0179C12.274 43.7313 10.6199 44.8181 8.87361 45.7395C8.00927 46.1953 7.10789 46.5694 6.20509 46.9285C5.67666 47.1395 5.11926 47.2689 4.56708 47.3908C4.32589 47.4452 3.80482 47.5093 3.75971 47.2364C3.71366 46.9644 4.16922 46.7392 4.41041 46.5978C5.45588 45.9821 6.52367 45.4131 7.56558 44.7921C8.63337 44.1555 9.65606 43.4463 10.4881 42.4151C11.7178 40.891 11.7895 39.0613 10.8696 37.3838C10.3497 36.4397 9.69357 35.5868 9.05261 34.7381C7.94945 33.2784 7.06279 31.6717 6.50539 29.8506C6.08402 28.4713 5.9715 27.0354 6.34135 25.6212C6.69507 24.2657 7.54517 23.3236 8.57236 22.5981C10.5095 21.2297 12.5658 21.0186 14.7163 21.829C14.8084 21.8637 15.01 21.979 15.1033 22.0084C15.1246 22.0149 14.9179 12.5075 15.1161 8.46164Z" fill="white"/>
</g>
<path fill-rule="evenodd" clip-rule="evenodd" d="M5.32256 26.9443C5.31178 27.9668 5.07707 36.3313 5.13 40.7256C5.14293 41.7322 5.13216 42.7408 5.11587 43.7476C5.1106 44.0973 4.99277 44.6948 4.75686 44.7021C4.52 44.7096 4.18901 44.0339 4.00842 43.6279C3.19077 41.801 2.77117 39.8343 2.44665 37.8508C1.89604 34.4852 1.70348 31.0849 1.79665 27.6655C1.80407 27.396 1.82898 27.1263 1.84431 26.8842C2.83919 26.293 4.33822 26.3164 5.32256 26.9443Z" fill="white"/>
<mask id="mask1_440_834" style="mask-type:luminance" maskUnits="userSpaceOnUse" x="1" y="21" width="5" height="4">
<path fill-rule="evenodd" clip-rule="evenodd" d="M1.77417 21.1558H5.9833V24.5021H1.77417V21.1558Z" fill="white"/>
</mask>
<g mask="url(#mask1_440_834)">
<path fill-rule="evenodd" clip-rule="evenodd" d="M3.7656 21.158C4.61617 21.1003 5.38559 22.1736 5.84271 23.0325C6.13989 23.5908 5.96534 24.0657 5.32663 24.3129C4.68687 24.5601 2.93016 24.5467 2.46705 24.3788C1.90635 24.1758 1.5656 23.6846 1.91678 23.0747C2.37625 22.2764 2.91477 21.2166 3.7656 21.158Z" fill="#EC671B"/>
</g>
</svg>