<?xml version="1.0" encoding="UTF-8" standalone="no"?>
<!-- Created with Inkscape (http://www.inkscape.org/) -->

<svg
   width="58.897587mm"
   height="52.626972mm"
   viewBox="0 0 58.897587 52.626972"
   version="1.1"
   id="svg5672"
   xml:space="preserve"
   inkscape:version="1.2.2 (b0a84865, 2022-12-01)"
   sodipodi:docname="drawing.svg"
   xmlns:inkscape="http://www.inkscape.org/namespaces/inkscape"
   xmlns:sodipodi="http://sodipodi.sourceforge.net/DTD/sodipodi-0.dtd"
   xmlns="http://www.w3.org/2000/svg"
   xmlns:svg="http://www.w3.org/2000/svg"><sodipodi:namedview
     id="namedview5674"
     pagecolor="#ffffff"
     bordercolor="#000000"
     borderopacity="0.25"
     inkscape:showpageshadow="2"
     inkscape:pageopacity="0.0"
     inkscape:pagecheckerboard="0"
     inkscape:deskcolor="#d1d1d1"
     inkscape:document-units="mm"
     showgrid="false"
     inkscape:zoom="0.78127806"
     inkscape:cx="168.31396"
     inkscape:cy="78.717173"
     inkscape:window-width="1390"
     inkscape:window-height="1027"
     inkscape:window-x="0"
     inkscape:window-y="25"
     inkscape:window-maximized="0"
     inkscape:current-layer="layer1" /><defs
     id="defs5669" /><g
     inkscape:label="Layer 1"
     inkscape:groupmode="layer"
     id="layer1"
     transform="translate(-40.866612,-154.74347)"><g
       id="g324"
       style="fill:#000000"
       transform="matrix(0.26458333,0,0,0.26458333,40.866612,154.74347)">
	<g
   id="g6"
   style="fill:#000000">
		<path
   class="st0"
   d="m 81.8,22.6 -2.7,4.6 0.5,0.5 4.6,-2.4 C 84.7,25.1 85,24.6 85,24.1 l 0.3,-2.4 -2.2,0.1 c -0.5,-0.1 -1,0.3 -1.3,0.8 z"
   id="path4"
   style="fill:#000000" />
	</g>
	<g
   id="g10"
   style="fill:#000000">
		<path
   class="st0"
   d="m 82,18.2 c 0.5,-0.5 0.6,-1.3 0.3,-1.9 l -0.6,-1.7 -2.1,1.1 c -0.5,0.3 -0.9,0.8 -1,1.4 l -1.1,5.2 0.7,0.4 z"
   id="path8"
   style="fill:#000000" />
	</g>
	<g
   id="g14"
   style="fill:#000000">
		<path
   class="st0"
   d="m 103.5,44.2 -2.9,-1.8 C 99.9,41.9 99,41.8 98.2,42.1 l -4.1,1.3 v 0.8 l 5.2,1.8 c 1,0.3 2,0.1 2.8,-0.5 z"
   id="path12"
   style="fill:#000000" />
	</g>
	<g
   id="g18"
   style="fill:#000000">
		<path
   class="st0"
   d="M 69.3,35.7 C 69,36.1 68.8,36.5 68.9,37 l 0.3,3.4 h 0.7 l 2.2,-2.8 c 0.4,-0.5 0.5,-1.3 0.2,-1.9 l -0.8,-2.1 z"
   id="path16"
   style="fill:#000000" />
	</g>
	<g
   id="g22"
   style="fill:#000000">
		<path
   class="st0"
   d="m 67.8,26.8 c -0.2,0.4 -0.3,0.9 -0.1,1.4 l 1.5,4.2 h 0.7 l 1.4,-4.1 c 0.2,-0.5 0.1,-0.9 -0.3,-1.5 l -1.6,-2.4 z"
   id="path20"
   style="fill:#000000" />
	</g>
	<g
   id="g26"
   style="fill:#000000">
		<path
   class="st0"
   d="m 68.5,19.5 c 0.5,-0.3 0.8,-1.1 0.9,-1.7 l 0.5,-2.9 -2.4,0.1 c -0.6,0 -1.2,0.4 -1.6,0.9 v 0 l -2.7,4.7 0.7,0.8 z"
   id="path24"
   style="fill:#000000" />
	</g>
	<g
   id="g30"
   style="fill:#000000">
		<path
   class="st0"
   d="m 88.5,18.3 c 0.9,-0.4 0.9,-0.4 1.3,-1.4 l 0.9,-2.4 h -2.9 c -0.6,0 -1.1,0.3 -1.5,0.8 l -2.6,4 0.6,0.7 z"
   id="path28"
   style="fill:#000000" />
	</g>
	<g
   id="g34"
   style="fill:#000000">
		<path
   class="st0"
   d="m 101.1,22.1 c -0.7,0 -1.3,0.5 -1.5,1.1 l -2.3,4.6 0.6,0.6 4.8,-2.6 c 0.6,-0.3 1,-0.9 1,-1.6 l -0.3,-2.1 z"
   id="path32"
   style="fill:#000000" />
	</g>
	<g
   id="g38"
   style="fill:#000000">
		<path
   class="st0"
   d="m 104,32.5 0.6,-2.5 -2.7,-0.8 c -0.5,-0.2 -1.1,0 -1.5,0.3 l -4.5,3.9 0.3,0.8 6.2,-0.3 c 0.8,-0.1 1.4,-0.6 1.6,-1.4 z"
   id="path36"
   style="fill:#000000" />
	</g>
	<g
   id="g42"
   style="fill:#000000">
		<path
   class="st0"
   d="m 89.4,22.5 6.9,-4.3 c 0.5,-0.4 0.8,-0.9 0.7,-1.5 l -0.2,-2.1 -3.1,0.8 c -0.5,0.1 -0.9,0.5 -1.2,1 L 88.8,22 Z"
   id="path40"
   style="fill:#000000" />
	</g>
	<g
   id="g46"
   style="fill:#000000">
		<path
   class="st0"
   d="m 76.3,19.3 c 0.3,-0.5 0.4,-1.1 0.2,-1.6 l -1.6,-3.2 -2.4,1.7 c -0.4,0.3 -0.4,1.2 -0.5,1.7 V 18 l -0.5,5.7 1,0.4 z"
   id="path44"
   style="fill:#000000" />
	</g>
	<g
   id="g50"
   style="fill:#000000">
		<path
   class="st0"
   d="m 41.1,21.5 -2.6,-1.3 -0.1,3 c -0.1,0.6 0.2,1.3 1,2 l 3,3 0.8,-0.5 -1.1,-5.1 c -0.3,-0.5 -0.5,-0.8 -1,-1.1 z"
   id="path48"
   style="fill:#000000" />
	</g>
	<g
   id="g54"
   style="fill:#000000">
		<path
   class="st0"
   d="m 66.5,24.8 -0.3,-2.3 -2.8,1.1 c -0.8,0.2 -0.9,1.1 -1.3,2 l -1.6,3.5 0.7,0.5 4.4,-2.1 c 0.7,-0.5 1.1,-0.9 0.9,-2.7 z"
   id="path52"
   style="fill:#000000" />
	</g>
	<g
   id="g58"
   style="fill:#000000">
		<path
   class="st0"
   d="m 53.3,26.2 0.7,-0.1 0.2,-3 c 0.1,-0.7 -0.3,-1.4 -0.9,-1.8 l -1.5,-0.8 -0.6,1.7 c -0.1,0.4 -0.1,0.9 0.1,1.3 z"
   id="path56"
   style="fill:#000000" />
	</g>
	<g
   id="g62"
   style="fill:#000000">
		<path
   class="st0"
   d="m 38.9,17.9 4.5,2.8 0.7,-0.5 -1.3,-3.9 c -0.2,-0.6 -0.7,-1 -1.3,-1.2 l -3,-0.6 -0.4,1.5 c -0.1,0.8 0.2,1.5 0.8,1.9 z"
   id="path60"
   style="fill:#000000" />
	</g>
	<g
   id="g66"
   style="fill:#000000">
		<path
   class="st0"
   d="m 45.3,24.4 3.2,2.9 0.6,-0.6 -0.9,-4 c -0.1,-0.5 -0.5,-1 -1,-1.1 L 45,21.1 44.7,23 c -0.2,0.5 0.1,1.1 0.6,1.4 z"
   id="path64"
   style="fill:#000000" />
	</g>
	<g
   id="g70"
   style="fill:#000000">
		<path
   class="st0"
   d="m 55.1,21 0.7,-0.2 0.6,-3.9 c 0,-0.5 -0.2,-0.9 -0.7,-1.2 L 54,14.5 52.6,16.4 c -0.3,0.5 -0.3,1.1 0,1.5 z"
   id="path68"
   style="fill:#000000" />
	</g>
	<g
   id="g74"
   style="fill:#000000">
		<path
   class="st0"
   d="m 62.6,18.2 c 0.5,-0.2 0.8,-0.6 0.8,-1.1 l -0.1,-2.6 -2.8,0.2 c -0.4,0.1 -0.8,0.4 -0.9,0.8 l -1.6,4.1 0.7,0.6 z"
   id="path72"
   style="fill:#000000" />
	</g>
	<g
   id="g78"
   style="fill:#000000">
		<path
   class="st0"
   d="m 59.4,32.3 c -0.2,0.1 -0.4,0.3 -0.6,0.5 l -1.7,1.7 0.1,0.6 2.8,0.1 c 0.6,0 1,-0.4 1.4,-1 l 0.8,-1.8 -1.8,-0.3 c -0.4,0 -0.7,0 -1,0.2 z"
   id="path76"
   style="fill:#000000" />
	</g>
	<g
   id="g82"
   style="fill:#000000">
		<path
   class="st0"
   d="m 55.9,27.5 3.9,-2 c 0.6,-0.3 1,-0.9 0.9,-1.6 l -0.3,-2.4 -2.6,1 C 57.4,22.7 57,23 56.9,23.4 L 55.2,27 Z"
   id="path80"
   style="fill:#000000" />
	</g>
	<g
   id="g86"
   style="fill:#000000">
		<path
   class="st0"
   d="m 45.8,17.4 3.5,3.2 0.8,-0.3 -0.4,-4 c -0.1,-0.7 -0.6,-1.2 -1.3,-1.4 l -1.6,-0.5 -1.3,1.2 c -0.3,0.7 -0.2,1.4 0.3,1.8 z"
   id="path84"
   style="fill:#000000" />
	</g>
	<g
   id="g90"
   style="fill:#000000">
		<path
   class="st0"
   d="m 85.8,26 v 0 l -2.4,4.5 0.6,0.5 4.4,-2.4 c 0.5,-0.3 0.8,-0.8 0.8,-1.3 l 0.2,-2.6 -2.3,0.3 c -0.6,0.1 -1.1,0.5 -1.3,1 z"
   id="path88"
   style="fill:#000000" />
	</g>
	<g
   id="g94"
   style="fill:#000000">
		<path
   class="st0"
   d="m 96.5,23.7 -3,0.6 c -0.4,0 -0.9,0.4 -1.3,1.2 l -2.5,4.4 0.5,0.6 4.6,-2 c 0.8,-0.3 1.3,-1.2 1.3,-2.2 z"
   id="path92"
   style="fill:#000000" />
	</g>
	<g
   id="g98"
   style="fill:#000000">
		<path
   class="st0"
   d="M 87.7,38.4 93,36 c 0.6,-0.3 1,-0.8 1,-1.4 l 0.2,-2 -3,0.2 c -0.6,0 -1.1,0.3 -1.4,0.8 l -2.7,4.2 z"
   id="path96"
   style="fill:#000000" />
	</g>
	<g
   id="g102"
   style="fill:#000000">
		<path
   class="st0"
   d="m 98.4,39.9 1.8,-2.1 -3.3,-1.3 c -0.6,-0.2 -1.3,-0.2 -1.8,0.2 l -4.4,3.4 0.3,0.7 6.1,-0.3 c 0.5,-0.1 1,-0.3 1.3,-0.6 z"
   id="path100"
   style="fill:#000000" />
	</g>
	<g
   id="g106"
   style="fill:#000000">
		<path
   class="st0"
   d="m 87.5,43.4 c -0.3,0.1 -0.6,0.4 -0.8,0.7 l -2.2,4 0.5,0.6 5.3,-2.1 c 0.7,-0.3 1.2,-1 1.1,-1.8 l -0.2,-2.5 z"
   id="path104"
   style="fill:#000000" />
	</g>
	<g
   id="g110"
   style="fill:#000000">
		<path
   class="st0"
   d="m 97,21.5 6,-2.8 c 0.6,-0.3 1,-0.9 1,-1.6 v -2.6 l -3,0.3 c -0.4,0.1 -0.7,0.4 -0.9,0.8 l -3.4,5.3 z"
   id="path108"
   style="fill:#000000" />
	</g>
	<g
   id="g114"
   style="fill:#000000">
		<path
   class="st0"
   d="m 108.8,20 c 1.1,-0.5 2.1,-1 2.2,-2 0.1,-0.8 0.1,-3.1 0.1,-3.5 l -2.9,0.4 c -0.8,0 -1.4,0.5 -1.6,1.2 l -2,4.7 0.6,0.6 z"
   id="path112"
   style="fill:#000000" />
	</g>
	<g
   id="g118"
   style="fill:#000000">
		<path
   class="st0"
   d="m 99.8,58.7 c -0.4,-0.4 -1,-0.6 -1.6,-0.4 l -5.4,1 -0.1,0.8 5.6,2.4 c 0.6,0.2 1.2,0.2 1.7,-0.1 l 2.2,-1.4 z"
   id="path116"
   style="fill:#000000" />
	</g>
	<g
   id="g122"
   style="fill:#000000">
		<path
   class="st0"
   d="m 77.8,27.5 0.1,-3.1 -2.6,0.8 c -0.6,0.2 -1,0.6 -1.2,1.2 l -1.5,5.4 0.6,0.4 3.9,-3.1 c 0.4,-0.3 0.7,-0.6 0.7,-1.6 z"
   id="path120"
   style="fill:#000000" />
	</g>
	<g
   id="g126"
   style="fill:#000000">
		<path
   class="st0"
   d="m 79.6,34.7 c 0.6,-0.3 0.9,-0.9 0.9,-1.6 l 0.2,-2.2 -2.6,0.3 c -0.7,0 -1.3,0.5 -1.6,1.2 l -1.4,3.7 0.6,0.5 z"
   id="path124"
   style="fill:#000000" />
	</g>
	<g
   id="g130"
   style="fill:#000000">
		<path
   class="st0"
   d="m 96.6,56.8 c 0.7,0.2 1.5,0 1.9,-0.6 l 1.5,-2 -3,-1.4 c -0.4,-0.2 -0.9,-0.2 -1.4,-0.1 l -4.5,1.6 v 0.8 z"
   id="path128"
   style="fill:#000000" />
	</g>
	<g
   id="g134"
   style="fill:#000000">
		<path
   class="st0"
   d="M 97.5,68.2 100.1,67.9 99.3,66 C 98.9,65 98,64.3 97,64.1 l -5.4,-1.1 -0.4,0.7 3.6,3.6 c 0.7,0.7 1.7,1.1 2.7,0.9 z"
   id="path132"
   style="fill:#000000" />
	</g>
	<g
   id="g138"
   style="fill:#000000">
		<path
   class="st0"
   d="m 96.8,74.9 3.6,-0.3 -0.3,-2.3 C 100,71.6 99.5,71 98.7,70.8 L 92,69.3 91.6,70 l 3.7,4.2 c 0.4,0.5 0.9,0.7 1.5,0.7 z"
   id="path136"
   style="fill:#000000" />
	</g>
	<g
   id="g142"
   style="fill:#000000">
		<path
   class="st0"
   d="m 79.8,37.4 0.3,0.5 4.6,-0.8 C 85.3,37 85.8,36.6 86.1,36 l 1.2,-3.4 -2.7,-0.1 c -0.6,0 -1.1,0.2 -1.4,0.7 z"
   id="path140"
   style="fill:#000000" />
	</g>
	<g
   id="g146"
   style="fill:#000000">
		<path
   class="st0"
   d="M 95.6,50.5 97.4,47.6 94,47.1 c -0.5,-0.1 -0.9,0 -1.3,0.3 l -4.5,2.6 0.2,0.7 5.5,0.5 c 0.7,0.2 1.3,-0.1 1.7,-0.7 z"
   id="path144"
   style="fill:#000000" />
	</g>
	<g
   id="g150"
   style="fill:#000000">
		<path
   class="st0"
   d="m 83.9,43.1 c 0.7,0.1 1,-0.2 1.6,-0.8 l 1.8,-1.9 -3.1,-1 C 83,39.1 82.5,39.2 82,39.7 l -3.2,2.2 0.2,0.8 z"
   id="path148"
   style="fill:#000000" />
	</g>
	<g
   id="g154"
   style="fill:#000000">
		<path
   class="st0"
   d="m 87.9,61.9 c 0.6,0.1 1.3,-0.1 1.7,-0.6 L 91,59.5 89.1,58.6 c -0.4,-0.2 -0.9,-0.2 -1.3,-0.1 l -4.3,1.5 0.1,0.7 z"
   id="path152"
   style="fill:#000000" />
	</g>
	<g
   id="g158"
   style="fill:#000000">
		<path
   class="st0"
   d="m 80.1,50.8 -1,4.1 0.6,0.5 3,-2.8 c 0.7,-0.8 1,-1.1 1,-1.8 l -0.2,-2.1 c 0,0 -1.6,0.6 -2.2,0.8 -0.6,0.2 -0.9,0.3 -1.2,1.3 z"
   id="path156"
   style="fill:#000000" />
	</g>
	<g
   id="g162"
   style="fill:#000000">
		<path
   class="st0"
   d="M 87.2,56.2 C 88,56 88.5,55.3 88.4,54.5 L 88.2,52.6 85.6,53 c -0.4,0 -0.7,0.2 -0.9,0.5 l -3.5,3.8 0.4,0.7 z"
   id="path160"
   style="fill:#000000" />
	</g>
	<g
   id="g166"
   style="fill:#000000">
		<path
   class="st0"
   d="m 107,38.8 -4.8,1.8 v 0.8 l 5.3,2 c 0.7,0.3 1.5,0.1 1.9,-0.5 l 1.7,-2 -2.5,-1.9 c -0.4,-0.4 -1,-0.4 -1.6,-0.2 z"
   id="path164"
   style="fill:#000000" />
	</g>
	<g
   id="g170"
   style="fill:#000000">
		<path
   class="st0"
   d="m 77.9,60.2 -2.2,2.1 0.4,0.8 3.4,-0.2 c 0.8,0 1.6,-0.6 1.8,-1.3 L 82,59.8 79.1,59.6 c -0.4,0.1 -0.8,0.3 -1.2,0.6 z"
   id="path168"
   style="fill:#000000" />
	</g>
	<g
   id="g174"
   style="fill:#000000">
		<path
   class="st0"
   d="m 87.8,67.3 2.7,-1 -1.6,-1.8 c -0.4,-0.4 -1,-0.7 -1.6,-0.6 l -4.8,0.1 -0.3,0.7 3.6,2.5 c 0.6,0.3 1.4,0.4 2,0.1 z"
   id="path172"
   style="fill:#000000" />
	</g>
	<g
   id="g178"
   style="fill:#000000">
		<path
   class="st0"
   d="m 78.2,64.9 -4.1,-0.1 -0.3,0.5 3.1,2.3 c 0.5,0.4 1.1,0.5 1.8,0.4 l 2.5,-0.5 -1.4,-1.9 c -0.3,-0.4 -0.9,-0.7 -1.6,-0.7 z"
   id="path176"
   style="fill:#000000" />
	</g>
	<g
   id="g182"
   style="fill:#000000">
		<path
   class="st0"
   d="m 16,81.9 c -0.3,0.2 -0.5,0.5 -0.6,0.8 l -1,2.7 5,-1.2 C 20,84.1 20.5,83.6 20.7,83 L 22.3,78.3 21.4,78 Z"
   id="path180"
   style="fill:#000000" />
	</g>
	<g
   id="g186"
   style="fill:#000000">
		<path
   class="st0"
   d="m 89.6,71.3 c -0.2,-0.6 -0.7,-1.1 -1.3,-1.2 l -5.5,-1.2 -0.4,0.7 3.7,4.5 c 0.4,0.5 1.1,0.8 1.7,0.6 l 2.8,-0.6 z"
   id="path184"
   style="fill:#000000" />
	</g>
	<g
   id="g190"
   style="fill:#000000">
		<path
   class="st0"
   d="M 78,57.2 V 55.8 L 76.1,56 c -0.8,0.1 -1.3,0.3 -1.5,1.3 l -0.7,3.5 -2.2,2.3 h -8.6 c -0.9,0 -1.4,-1.1 -0.8,-1.8 L 66.5,56.5 65.8,55.9 54.1,68.7 53.4,68 55.1,66 c 0.2,-0.2 0.3,-0.5 0.2,-0.7 l -1.1,-2.5 5.3,-12.4 c 0.4,-1 1.4,-1.7 2.6,-1.7 h 3.7 l 1.8,-1.9 c 1.6,-1.6 2.2,-1.9 3.8,-1.9 h 2.9 l 2.5,1.9 c 0.5,0.4 1,0.3 1.8,0.2 L 80.8,46.3 79,44.6 C 78.2,43.9 77.9,44 77.3,44 h -3.8 v 0 0 h -3.3 l 1.7,-1.8 3.1,-0.4 c 0.6,-0.1 1,-0.5 1.4,-1.1 l 1.3,-2.3 h -2.4 c -0.7,0 -1.2,0.1 -1.6,0.5 l -5.2,5.7 c -0.5,0.5 -1.4,0.6 -2,0.6 h -7 l -2.1,2.2 -0.7,-0.6 1.7,-2 c 0.3,-0.3 0.4,-0.8 0.4,-1.2 l -0.6,-6.2 c 0,0 -2.2,-1.2 -2.2,-2.5 -0.1,-1 0.3,-2 1,-2.6 l 1.1,-0.8 c 0.7,-0.5 0.9,-0.8 1,-2.1 l 0.1,-1.9 -3.2,1.3 c -0.4,0.2 -0.9,0.9 -0.9,1.3 v 2.4 L 54.2,34.1 53,32.8 v -1.1 l 0.5,-2.2 c 0.2,-0.7 -0.3,-1.3 -0.8,-1.7 l -2,-1.5 -0.9,2 c -0.1,0.5 0,1.1 0.3,1.6 l 1.7,2 v 9.9 L 47,38.8 C 46.3,38.4 45.8,37.7 45.7,36.9 V 35 31.9 c 0,-1.1 0.1,-1.2 -0.6,-1.8 l -1.2,-0.9 -1,1.7 c -0.3,0.5 -0.4,1 -0.1,1.5 l 1.9,2.6 v 0 l -0.4,2 -4.5,-4.1 c -0.4,-0.4 -1,-0.5 -1.5,-0.4 l -2.2,0.9 0.9,1.5 c 0.4,0.7 0.7,0.7 1.3,0.9 l 3.5,0.4 6.8,9 c 0.9,1.1 1.1,2.4 0.5,3.6 l -1.7,3.5 -0.5,1 -10.5,-6.5 c -0.8,-0.5 -0.9,-0.6 -1.7,-0.6 l -1.8,0.2 0.7,1.8 c 0.3,0.7 1,1.3 1.7,1.3 h 3.4 l 2.5,1.5 v 0.4 h -3.8 v 0 h -3.3 c -0.7,0 -1.3,0.4 -1.6,1 l -1.2,2.7 2.2,0.1 c 0.5,0 0.9,-0.1 1.2,-0.4 l 2.7,-2.4 h 1.3 c 0.9,0 1.4,-0.1 1.8,0.6 l 2.3,3.3 c 0.9,1.3 1.1,1.9 0.8,2.8 l -1.4,3 -2.5,5 -0.2,13.6 -3.4,3.6 v 1.2 h 26.6 l 1.1,-1.1 -3.9,-8.7 2.5,-8.2 C 62.7,66.6 63.5,66 64.5,66 h 6.1 l 6.6,-7.2 C 78,58 78,57.9 78,57.2 Z"
   id="path188"
   style="fill:#000000" />
	</g>
	<g
   id="g194"
   style="fill:#000000">
		<path
   class="st0"
   d="m 28.1,55.9 -4.6,2.4 c -0.5,0.3 -0.9,0.8 -0.9,1.4 v 2.7 l 3.5,-1.2 c 0.4,-0.1 0.8,-0.5 1,-0.9 l 1.8,-4 z"
   id="path192"
   style="fill:#000000" />
	</g>
	<g
   id="g198"
   style="fill:#000000">
		<path
   class="st0"
   d="m 25.7,64.6 -1,0.1 -2.3,6.3 c -0.2,0.5 -0.1,1.2 0.2,1.7 l 1.2,2.7 2.6,-3.5 c 0.5,-0.5 0.7,-1.3 0.4,-1.9 z"
   id="path196"
   style="fill:#000000" />
	</g>
	<g
   id="g202"
   style="fill:#000000">
		<path
   class="st0"
   d="M 31.2,57.9 28,62.2 c -0.4,0.5 -0.5,1.1 -0.4,1.7 l 0.6,2 3.1,-1.9 c 0.5,-0.3 0.9,-0.9 0.8,-1.5 V 58 Z"
   id="path200"
   style="fill:#000000" />
	</g>
	<g
   id="g206"
   style="fill:#000000">
		<path
   class="st0"
   d="m 89.5,76.4 -0.7,0.4 0.6,5.6 c 0.1,0.5 0.3,0.9 0.8,1.2 l 3.5,2 0.6,-3.6 c 0.1,-0.5 -0.1,-1 -0.5,-1.4 z"
   id="path204"
   style="fill:#000000" />
	</g>
	<g
   id="g210"
   style="fill:#000000">
		<path
   class="st0"
   d="m 108.1,52.1 -7.1,-0.2 -0.3,0.8 5.6,3.7 c 0.6,0.5 1.5,0.5 2.1,0 l 2.7,-1.7 -1.9,-2 c -0.2,-0.4 -0.7,-0.6 -1.1,-0.6 z"
   id="path208"
   style="fill:#000000" />
	</g>
	<g
   id="g214"
   style="fill:#000000">
		<path
   class="st0"
   d="m 107.2,32 -4.3,4.4 0.4,0.8 6.3,-0.7 c 0.9,-0.1 1.6,-0.9 1.6,-1.8 V 32 l -2.4,-0.5 c -0.6,-0.1 -1.2,0.1 -1.6,0.5 z"
   id="path212"
   style="fill:#000000" />
	</g>
	<g
   id="g218"
   style="fill:#000000">
		<path
   class="st0"
   d="m 106,46.1 c -0.1,0 -0.1,0.1 -0.2,0.1 l -5.4,2.4 0.1,0.8 6.9,0.8 c 0.1,0 0.3,0 0.4,0.1 0.7,0.1 1.1,0.2 2.3,-1 l 1.1,-1.1 -2.1,-1.4 C 107.3,45.5 107,45.6 106,46.1 Z"
   id="path216"
   style="fill:#000000" />
	</g>
	<g
   id="g222"
   style="fill:#000000">
		<path
   class="st0"
   d="m 107.6,23.8 -3.7,3.2 0.2,0.8 3.1,0.4 c 0.2,0 0.3,0 0.5,0 1,0.1 2,0.2 2.5,-0.5 0.1,-0.2 0.2,-0.4 0.3,-0.6 l 0.6,-2.5 -1.6,-1 c -0.6,-0.3 -1.3,-0.2 -1.9,0.2 z"
   id="path220"
   style="fill:#000000" />
	</g>
	<g
   id="g226"
   style="fill:#000000">
		<path
   class="st0"
   d="m 110.4,80.6 v 0 l -6.6,-4.2 -0.6,0.5 2.3,6.5 c 0.2,0.6 0.6,1 1.2,1.1 l 4.5,1 v -3.6 c -0.1,-0.5 -0.3,-1 -0.8,-1.3 z"
   id="path224"
   style="fill:#000000" />
	</g>
	<g
   id="g230"
   style="fill:#000000">
		<path
   class="st0"
   d="m 101.6,81.2 v 0 l -5.8,-4.7 -0.7,0.5 2.4,7 c 0.2,0.6 0.8,1 1.4,1 l 3.6,0.5 -0.2,-3 c -0.1,-0.5 -0.3,-1 -0.7,-1.3 z"
   id="path228"
   style="fill:#000000" />
	</g>
	<g
   id="g234"
   style="fill:#000000">
		<path
   class="st0"
   d="m 109.2,72.1 -6.6,-2.1 -0.5,0.7 4.7,5.3 c 0.4,0.4 0.9,0.6 1.5,0.6 l 2.9,-0.3 -0.8,-3 c -0.2,-0.6 -0.6,-1.1 -1.2,-1.2 z"
   id="path232"
   style="fill:#000000" />
	</g>
	<g
   id="g238"
   style="fill:#000000">
		<path
   class="st0"
   d="m 108.2,58.3 h -5.3 l -0.3,0.8 4.3,3.6 c 0.4,0.3 0.8,0.4 1.2,0.4 l 3,-0.8 -1.8,-3.4 c -0.2,-0.4 -0.6,-0.6 -1.1,-0.6 z"
   id="path236"
   style="fill:#000000" />
	</g>
	<g
   id="g242"
   style="fill:#000000">
		<path
   class="st0"
   d="m 110,67 c -0.3,-0.8 -0.4,-1 -0.9,-1.3 l -7.3,-1.4 -0.4,0.7 4.8,4.3 c 0.3,0.2 0.6,0.4 0.9,0.5 l 4.1,0.3 -1,-2.7 C 110.1,67.2 110.1,67.1 110,67 Z"
   id="path240"
   style="fill:#000000" />
	</g>
	<g
   id="g246"
   style="fill:#000000">
		<path
   class="st0"
   d="m 25.5,19 v 0 l 5.5,2.8 0.5,-0.6 -3.2,-5.7 c -0.4,-0.5 -0.7,-0.6 -1.6,-0.7 -0.1,0 -0.2,0 -0.4,0 l -2.8,-0.3 1,3.7 c 0.3,0.3 0.6,0.6 1,0.8 z"
   id="path244"
   style="fill:#000000" />
	</g>
	<g
   id="g250"
   style="fill:#000000">
		<path
   class="st0"
   d="m 29.2,28.6 -2.8,1 2,2.5 c 0.4,0.5 0.9,0.7 1.5,0.7 l 4.4,-0.3 0.2,-0.8 -3.7,-2.8 c -0.5,-0.4 -1.1,-0.5 -1.6,-0.3 z"
   id="path248"
   style="fill:#000000" />
	</g>
	<g
   id="g254"
   style="fill:#000000">
		<path
   class="st0"
   d="m 14.4,76.6 0.2,2.9 4.2,-2.1 c 0.5,-0.2 0.8,-0.7 1,-1.2 l 1,-4.3 L 20,71.3 15.1,75 c -0.5,0.4 -0.8,1 -0.7,1.6 z"
   id="path252"
   style="fill:#000000" />
	</g>
	<g
   id="g258"
   style="fill:#000000">
		<path
   class="st0"
   d="m 34,41.8 -4,-2.6 c -0.5,-0.3 -1.1,-0.3 -1.5,0 l -2.6,1.5 2.3,1.8 c 0.3,0.3 0.7,0.4 1.2,0.3 l 4.7,-0.4 z"
   id="path256"
   style="fill:#000000" />
	</g>
	<g
   id="g262"
   style="fill:#000000">
		<path
   class="st0"
   d="m 34.7,35.7 -5,-1.8 c -0.6,-0.3 -0.9,-0.1 -1.8,0.2 l -1.7,0.9 1.5,1.8 c 0.4,0.6 1,0.8 1.7,0.7 l 5.2,-1 z"
   id="path260"
   style="fill:#000000" />
	</g>
	<g
   id="g266"
   style="fill:#000000">
		<path
   class="st0"
   d="m 37.8,42.8 h -2.1 l 0.6,1.7 c 0.1,0.4 0.3,0.6 0.8,0.9 l 3.1,2 0.4,-0.5 -1.4,-3.4 c -0.4,-0.4 -0.9,-0.7 -1.4,-0.7 z"
   id="path264"
   style="fill:#000000" />
	</g>
	<g
   id="g270"
   style="fill:#000000">
		<path
   class="st0"
   d="m 32.2,18.6 3.3,3.6 0.7,-0.4 -0.8,-5.8 c -0.2,-0.8 -0.9,-1.4 -1.7,-1.4 h -2 v 2.9 c 0,0.4 0.2,0.8 0.5,1.1 z"
   id="path268"
   style="fill:#000000" />
	</g>
	<g
   id="g274"
   style="fill:#000000">
		<path
   class="st0"
   d="m 24.6,51.2 -1.8,2.6 2.9,1 c 0.6,0.2 1.3,0.1 1.8,-0.4 L 31.3,51 31,50 26,50.4 c -0.6,0.1 -1.1,0.3 -1.4,0.8 z"
   id="path272"
   style="fill:#000000" />
	</g>
	<g
   id="g278"
   style="fill:#000000">
		<path
   class="st0"
   d="M 41,37.8 37.7,37.2 C 37,37.1 36.3,37.4 36,38 l -1.1,1.8 2.4,0.6 c 0.5,0.1 1,0 1.4,-0.2 l 2.8,-1.8 z"
   id="path276"
   style="fill:#000000" />
	</g>
	<g
   id="g282"
   style="fill:#000000">
		<path
   class="st0"
   d="M 31.7,44.9 27,44.3 c -0.6,-0.1 -1.1,0.2 -1.5,0.6 l -2,2.3 2.9,1.3 c 0.5,0.2 1.2,0.2 1.7,-0.2 l 3.6,-2.5 z"
   id="path280"
   style="fill:#000000" />
	</g>
	<g
   id="g286"
   style="fill:#000000">
		<path
   class="st0"
   d="m 26.8,22.3 -2.6,0.7 0.5,1.8 c 0.2,0.6 0.7,1.2 1.3,1.3 l 5.7,1.2 0.4,-0.7 -3.6,-3.8 C 28,22.4 27.4,22.2 26.8,22.3 Z"
   id="path284"
   style="fill:#000000" />
	</g>
	<g
   id="g290"
   style="fill:#000000">
		<path
   class="st0"
   d="m 18,55.1 4.3,-5.2 -0.7,-0.6 -4.8,1.2 c -0.5,0.1 -1,0.5 -1.1,1.1 l -1.3,3.5 2,0.5 c 0.6,0.2 1.2,0 1.6,-0.5 z"
   id="path288"
   style="fill:#000000" />
	</g>
	<g
   id="g294"
   style="fill:#000000">
		<path
   class="st0"
   d="M 19,61.8 21.1,57 20.4,56.3 15.5,59.1 C 15,59.4 14.6,60 14.6,60.6 l -0.2,3.2 3.5,-0.9 c 0.5,-0.2 0.9,-0.6 1.1,-1.1 z"
   id="path292"
   style="fill:#000000" />
	</g>
	<g
   id="g298"
   style="fill:#000000">
		<path
   class="st0"
   d="M 18.9,47.9 24,43 23.5,42.1 17.6,43.3 c -0.5,0.1 -0.9,0.4 -1.1,0.7 l -2,2.8 2.3,1.3 c 0.6,0.5 1.5,0.4 2.1,-0.2 z"
   id="path296"
   style="fill:#000000" />
	</g>
	<g
   id="g302"
   style="fill:#000000">
		<path
   class="st0"
   d="m 18.6,69.9 3,-5.3 -0.7,-0.6 -5,2.1 c -0.6,0.2 -1,0.8 -1.1,1.4 l -0.4,2.8 2.3,0.5 c 0.7,0.1 1.5,-0.2 1.9,-0.9 z"
   id="path300"
   style="fill:#000000" />
	</g>
	<g
   id="g306"
   style="fill:#000000">
		<path
   class="st0"
   d="M 16.5,19.6 22.7,20.8 23,20.1 18.7,15 c -0.5,-0.5 -1.4,-0.7 -2,-0.3 l -2.3,1.3 0.8,2.5 c 0.1,0.6 0.7,1.1 1.3,1.1 z"
   id="path304"
   style="fill:#000000" />
	</g>
	<g
   id="g310"
   style="fill:#000000">
		<path
   class="st0"
   d="m 34,24.4 0.3,3.2 c 0.1,0.7 0.5,1.3 1.2,1.5 l 4.5,2 0.5,-0.6 -3.7,-5.3 c -0.3,-0.5 -0.9,-0.8 -1.5,-0.8 z"
   id="path308"
   style="fill:#000000" />
	</g>
	<g
   id="g314"
   style="fill:#000000">
		<path
   class="st0"
   d="m 17.5,28.1 6.6,0.1 0.3,-0.8 -5.1,-3.9 c -0.6,-0.4 -1.4,-0.5 -2,0 l -3,2 2,2 c 0.4,0.4 0.8,0.6 1.2,0.6 z"
   id="path312"
   style="fill:#000000" />
	</g>
	<g
   id="g318"
   style="fill:#000000">
		<path
   class="st0"
   d="m 19.8,35.1 5.6,-2.2 v -0.8 l -6.5,-2.3 c -0.6,-0.2 -1.2,-0.1 -1.7,0.3 l -2.8,2.4 3.9,2.4 c 0.4,0.4 1,0.4 1.5,0.2 z"
   id="path316"
   style="fill:#000000" />
	</g>
	<g
   id="g322"
   style="fill:#000000">
		<path
   class="st0"
   d="m 19,40.8 5,-2.7 -0.1,-1 -6.5,-0.5 c -0.7,-0.1 -1.3,0.3 -1.6,0.8 l -1.5,2.2 3.1,1.3 c 0.6,0.2 1.1,0.2 1.6,-0.1 z"
   id="path320"
   style="fill:#000000" />
	</g>
</g><g
       id="g328"
       style="fill:#000000"
       transform="matrix(0.26458333,0,0,0.26458333,40.866612,154.74347)">
	<path
   class="st0"
   d="M 125.6,100 H 0 V 0 H 125.6 Z M 1.4,98.6 H 124.1 V 1.4 H 1.4 Z"
   id="path326"
   style="fill:#000000" />
</g><g
       id="g338"
       style="fill:#000000"
       transform="matrix(0.26458333,0,0,0.26458333,-17.631426,180.91211)">
	<g
   id="g332"
   style="fill:#000000">
		<path
   class="st0"
   d="m 381.2,33 h 0.6 V 16 h -2.2 V 28 L 368.2,15.8 h -0.5 v 16.9 h 2.1 v -12 z m -21,0 h 0.6 V 16 h -2.2 V 28 L 347.2,15.8 h -0.5 v 16.9 h 2.1 v -12 z m -1.4,26 h 8.8 V 57.1 H 361 V 51 h 6.1 V 49.1 H 361 v -5 h 6.6 v -1.9 h -8.8 z m -26,-33 2.5,-5.9 2.5,5.9 z m -5.3,6.8 h 2.2 l 2.3,-4.9 h 6.7 l 2.3,4.9 h 2.3 l -7.5,-16.9 h -0.6 z m 51.9,51.4 h 8.8 v -1.9 h -6.6 v -6.1 h 6.1 v -1.9 h -6.1 v -5 h 6.6 v -1.9 h -8.8 z M 347.4,59 h 2.2 V 44.1 h 5.1 v -1.9 h -12.4 v 1.9 h 5.1 V 59 Z M 306,32.8 h 2.1 v -12 l 6.7,7 6.7,-7 v 12 h 2.1 v -17 h -0.5 l -8.3,8.9 -8.3,-8.9 H 306 Z m 61.6,51.9 c 2.3,0 4.2,-0.7 5.7,-2 v -2.5 l -0.2,-0.1 c -1,1.5 -2.9,2.7 -5.5,2.7 -3.7,0 -6.6,-3.1 -6.6,-7.1 0,-3.8 2.8,-6.9 6.6,-6.9 2.4,0 4.4,1.1 5.5,2.6 l 0.2,-0.1 V 69 c -1.4,-1.3 -3.3,-2 -5.7,-2 -4.9,0 -8.8,3.8 -8.8,8.7 0.1,5.1 3.9,9 8.8,9 z M 330.9,59.2 c 3.7,0 7.3,-1.9 7.3,-7.4 V 42.3 H 336 v 10.2 c 0,3.2 -2.5,4.9 -5.1,4.9 -2.5,0 -5.1,-1.7 -5.1,-4.9 V 42.2 h -2.2 v 9.5 c 0,5.6 3.6,7.5 7.3,7.5 z m 22,25.2 h 0.5 V 67.5 h -2.1 v 12 L 339.9,67.3 h -0.5 v 16.9 h 2.1 v -12 z M 288.1,32.8 h 12.5 v -1.9 h -8.8 l 9.6,-14.8 H 289.1 V 18 h 8.7 z M 312.3,59 h 2.1 V 44.1 h 5.1 v -1.9 h -12.4 v 1.9 h 5.1 V 59 Z M 281.6,32.8 h 2.1 V 16 h -2.1 z m 42.1,51.4 h 8.8 v -1.9 h -6.6 v -6.1 h 6.2 v -1.9 h -6.2 v -5 h 6.6 v -1.9 h -8.8 z M 299.9,59 H 302 V 42.2 h -2.1 z M 267,32.8 h 8.7 v -1.9 h -6.6 v -6 h 6.1 V 23 h -6.1 v -5 h 6.6 V 16 H 267 Z m 47.6,51.4 h 2.1 V 67.5 h -2.1 z M 287.4,59 h 2.1 V 44.1 h 5.2 v -1.9 h -12.5 v 1.9 h 5.1 V 59 Z M 246.1,33 h 0.6 l 3.5,-6.4 3.5,6.4 h 0.5 l 9.9,-16.9 h -2.6 l -7.7,13.4 -2.6,-4.9 4.6,-8.4 h -2.4 l -3.3,6.3 -3.3,-6.3 h -2.5 l 4.6,8.4 -2.6,4.9 -7.5,-13.5 h -2.6 z m 56.7,51.7 c 2.3,0 4.3,-0.7 5.7,-2 v -2.5 l -0.2,-0.1 c -1,1.5 -2.9,2.7 -5.5,2.7 -3.7,0 -6.6,-3.1 -6.6,-7.1 0,-3.8 2.9,-6.9 6.6,-6.9 2.4,0 4.4,1.1 5.5,2.6 l 0.2,-0.1 V 69 c -1.4,-1.3 -3.4,-2 -5.7,-2 -4.9,0 -8.7,3.8 -8.7,8.7 0,5.1 3.8,9 8.7,9 z M 273.4,59.3 c 2.9,0 5.5,-1.6 5.5,-4.8 0,-2.8 -1.4,-4.2 -5,-5.7 -1.8,-0.8 -2.6,-1.9 -2.6,-3 0,-1.2 0.9,-2.1 2.3,-2.1 0.9,0 2,0.4 2.9,1.9 l 1.8,-1 c -1.2,-2 -2.8,-2.8 -4.5,-2.8 -2.7,0 -4.7,1.4 -4.7,4.1 0,1.7 1.1,3.4 4.2,4.7 2.8,1.3 3.4,2.2 3.4,3.9 0,1.7 -1.3,2.9 -3.2,2.9 -1.3,0 -2.9,-0.8 -3.9,-2.9 l -1.7,0.9 c 0.8,2.5 3.1,3.9 5.5,3.9 z m 11.2,25.3 c 2.9,0 5.5,-1.6 5.5,-4.7 0,-2.8 -1.3,-4.3 -4.9,-5.8 -1.8,-0.7 -2.7,-1.9 -2.7,-3 0,-1.1 0.9,-2 2.3,-2 0.9,0 2,0.4 2.9,1.8 l 1.8,-1 c -1.2,-1.9 -2.8,-2.7 -4.5,-2.7 -2.7,0 -4.7,1.4 -4.7,4.1 0,1.7 1,3.4 4.1,4.8 2.8,1.2 3.5,2.1 3.5,3.9 0,1.7 -1.3,2.8 -3.3,2.8 -1.3,0 -2.8,-0.8 -3.9,-2.8 l -1.7,0.9 c 1,2.3 3.2,3.7 5.6,3.7 z M 262,59.2 h 0.5 v -17 h -2.1 v 12 L 248.9,42 h -0.5 v 17 h 2.1 V 47 Z M 239.4,59 h 2.1 V 42.2 h -2.1 z m 21.3,25.2 h 2.1 v -8 h 5.9 v -1.9 h -5.9 v -5 h 6.6 v -1.9 h -8.7 z m -13.4,-1.4 c -3.9,0 -7,-3.1 -7,-7.1 0,-3.8 3.1,-6.9 7,-6.9 3.8,0 6.8,3 6.8,6.9 0,4 -3,7.1 -6.8,7.1 z m 0,1.9 c 5.1,0 9.1,-3.8 9.1,-9 0,-4.9 -4,-8.7 -9.1,-8.7 -5.2,0 -9.1,3.8 -9.1,8.7 -0.1,5.1 3.9,9 9.1,9 z"
   id="path330"
   style="fill:#000000" />
	</g>
	<g
   id="g336"
   style="fill:#000000">
		<path
   class="st0"
   d="M 443.7,100 H 221.1 V 0 H 443.7 Z M 222.6,98.6 H 442.3 V 1.4 H 222.6 Z"
   id="path334"
   style="fill:#000000" />
	</g>
</g><g
       id="g348"
       style="fill:#000000"
       transform="matrix(0.26458333,0,0,0.26458333,40.866612,154.74347)">
	<g
   id="g342"
   style="fill:#000000">
		<path
   class="st0"
   d="m 142.3,47.9 -0.4,12.8 3.5,3 h 0.6 l -2.3,-15.4 c -0.1,-0.4 0.1,-1.1 0.7,-1.8 l 2.6,-3 -4.9,-4.1 h -1 l -2,2.3 4.1,3.5 c 0.6,0.4 0.6,1 0.1,1.5 z m 40.1,-13.2 h 22 l 2.4,-4.3 V 19.2 c 0,-1.8 -1.5,-3.2 -3.6,-3.2 H 196 l -2.2,2.4 c -0.7,0.8 -2,0.8 -2.8,0.1 l -4.4,-3.7 h -1 l -2,2.3 5.4,4.5 c 0.7,0.6 0.7,1.4 0,2.2 l -1.4,1.7 0.7,0.6 5,-5.8 c 0.5,-0.6 1.3,-1.1 2.5,-1.1 h 5.6 c 1.3,0 2,0.5 2.2,1.7 l 1.4,7.7 c 0.2,0.9 0.1,1.5 -0.3,1.9 -0.7,0.9 -2.4,1 -4.3,1 h -17 l -1.2,2.5 v 0.7 z m 20.2,25.1 h 0.7 l 3.1,-1.4 -2.1,-10.1 c -0.1,-0.4 0.1,-1 0.8,-1.7 l 2.6,-3 -4.9,-4.1 h -1 l -2,2.3 4.2,3.5 c 0.6,0.4 0.6,1 0.1,1.5 l -0.9,1.1 z m -10,-10 5.6,-6.4 -4.7,-4 h -1 l -2,2.4 3.5,2.9 c 0.7,0.6 0.7,1.4 0,2.2 l -2,2.3 z M 157.2,34.7 h 21.7 l 2.1,-4.3 v -12 C 181,17 179.7,16 178.1,16 h -14.9 c -0.6,0 -1.1,-0.3 -1.5,-0.7 l -0.5,-0.4 h -0.9 l -2,2.3 2.5,2 h 15.7 c 0.9,0 1.3,0.3 1.4,1.1 l 1.3,8.2 c 0.1,0.8 -0.1,1.4 -0.4,1.9 -0.7,0.9 -2.3,1.1 -4.1,1.1 h -16.2 l -1.3,2.6 z m 13.1,24.8 h 16.2 l 1.3,-2.6 c 0.3,-0.7 0.1,-1.3 -0.6,-1.8 l -3.6,-2.8 c -0.7,-0.5 -0.9,-1.5 -0.3,-2.2 l 5.7,-6.6 -4.8,-4 h -1 l -2,2.3 3.6,3 c 0.7,0.6 0.7,1.4 0,2.2 l -3.3,3.8 -4,-3.1 c -0.6,-0.4 -0.5,-1.1 -0.2,-1.5 l 2.3,-2.7 -4.9,-4.1 h -1 l -2,2.3 4.1,3.4 c 0.6,0.5 0.5,1.1 0.1,1.7 l -0.9,1.2 8.3,7.6 c 0.3,0.2 0.2,0.7 -0.4,0.7 h -11.5 l -1.2,2.5 v 0.7 z M 151.5,35.3 h 0.7 l 3.1,-1.4 -2.1,-10.1 c -0.1,-0.6 0.3,-1.2 0.8,-1.7 l 2.6,-3 -4.9,-4.1 h -1 l -2,2.3 4.2,3.5 c 0.6,0.5 0.6,1 0.1,1.5 l -0.9,1.1 z m -6.1,3.5 h 0.6 l -2.3,-15.1 c -0.1,-0.4 0.1,-1 0.7,-1.7 l 2.6,-3 -4.9,-4.1 h -1 l -2,2.3 4.2,3.5 c 0.6,0.4 0.6,1 0.1,1.5 l -1,1.1 -0.4,12.5 z m 1.9,20.7 h 19.4 l 2.1,-4.3 V 43.8 c 0,-1.8 -1.5,-3.3 -3.6,-3.3 h -4 l -2.3,2.6 c -0.7,0.8 -1.9,0.8 -2.7,0.1 l -4.4,-3.8 h -1.3 l -1.9,2.2 5.4,4.6 c 0.7,0.6 0.8,1.4 0.2,2.2 l -1.4,1.7 0.7,0.6 5,-5.9 c 0.4,-0.6 1.3,-1.1 2.6,-1.1 h 2.9 c 1.2,0 1.7,0.7 1.9,1.9 l 1.3,7.9 c 0.2,0.8 0,1.4 -0.2,1.8 -0.7,1.1 -2.4,1.2 -3.8,1.2 h -14.6 l -1.2,2.5 v 0.5 z m 21.2,24.8 h 20.3 L 191,80 V 68.6 c 0,-1.8 -1.5,-3.3 -3.6,-3.3 h -3.5 l -2.3,2.6 c -0.7,0.8 -1.9,0.8 -2.7,0.1 l -4.4,-3.7 h -1 l -2,2.3 5.2,4.4 c 0.7,0.6 0.8,1.5 0.2,2.3 l -1.4,1.7 0.7,0.6 5,-5.7 c 0.4,-0.6 1.4,-1.1 2.7,-1.1 h 2.3 c 1.2,0 1.8,0.4 1.9,1.5 l 1.4,8.1 c 0.2,0.9 0,1.5 -0.3,1.9 -0.8,0.9 -2.4,1 -4.3,1 h -15 l -1.2,2.5 v 0.5 z m -6.1,0.5 h 0.7 l 3.1,-1.4 -1.9,-8.9 c -0.3,-1.5 -0.1,-2.4 1.6,-3.9 0.7,-0.7 1.5,-1.4 3.2,-2.5 v -1.2 c 0,-1.1 -0.4,-1.5 -1.5,-1.5 h -13.7 c -0.7,0 -1.1,-0.2 -1.7,-0.6 l -0.5,-0.4 h -0.9 l -2,2.3 2.4,2 h 13.3 c 0.8,0 1.3,0.4 1.3,0.9 0,0.3 -0.1,0.5 -0.3,0.7 l -2.5,2.5 z m -23,0.3 c 5.6,-1.4 10.6,-3.5 13.8,-7.9 0.6,-1.3 1.1,-3.2 1.4,-5.6 L 154,71.1 c -0.7,2.2 -2.6,5 -4.1,5.9 -0.5,0.3 -1.1,0.3 -1.5,-0.2 L 144.9,73 c -0.4,-0.4 -0.6,-0.7 -0.6,-1 0,-0.3 0.2,-0.7 0.5,-1.1 l 2.1,-2.4 -5,-4.3 h -1 l -2,2.3 4.2,3.5 c 0.6,0.4 0.6,1 0.1,1.5 l -1,1.1 4,6.4 c -1.3,0.8 -3.8,1.7 -5.6,2 l -1.7,3.5 z m 53.1,-0.4 c 7,-1.8 12.4,-5 14.4,-8.8 v -8.8 c 0,-0.9 -1,-1.8 -2.3,-1.8 h -7 c -1.4,0 -1.9,-0.3 -2,-1 l -0.5,-2.6 c -0.1,-0.4 0.1,-1 0.8,-1.7 l 2.6,-3 -4.3,-3.6 h -0.9 l -2,2.3 3.6,3 c 0.3,0.2 0.4,0.6 0.4,0.8 0,0.2 -0.1,0.5 -0.3,0.7 l -0.9,1.1 v 6.4 c 0.6,0.6 1.1,0.8 2.2,0.8 h 6.9 c 0.6,0 1,0.3 1.1,0.8 l 0.9,4.9 c 0.2,0.8 -0.1,1.2 -0.4,1.6 -2.3,2.2 -6.1,3.5 -10.8,4.9 l -1.7,3.5 z"
   id="path340"
   style="fill:#000000" />
	</g>
	<g
   id="g346"
   style="fill:#000000">
		<path
   class="st0"
   d="M 222.6,100 H 124.2 V 0 h 98.4 z m -97,-1.4 h 95.6 V 1.4 h -95.6 z"
   id="path344"
   style="fill:#000000" />
	</g>
</g></g></svg>
